<?xml version="1.0" standalone="no"?>
<!DOCTYPE svg PUBLIC "-//W3C//DTD SVG 20010904//EN"
 "http://www.w3.org/TR/2001/REC-SVG-20010904/DTD/svg10.dtd">
<svg version="1.0" xmlns="http://www.w3.org/2000/svg"
 width="260.000000pt" height="260.000000pt" viewBox="0 0 260.000000 260.000000"
 preserveAspectRatio="xMidYMid meet">
<metadata>
Created by potrace 1.14, written by Peter Selinger 2001-2017
</metadata>
<g transform="translate(0.000000,260.000000) scale(0.100000,-0.100000)"
fill="#000000" stroke="none">
<path d="M482 2368 c-57 -9 -136 -54 -174 -97 -17 -19 -43 -60 -57 -91 l-25
-55 0 -825 0 -825 25 -55 c37 -79 81 -125 157 -162 l66 -33 826 0 825 1 55 25
c79 37 125 81 162 157 l33 66 0 826 0 826 -33 66 c-37 76 -83 120 -162 157
l-55 25 -800 1 c-440 0 -820 -3 -843 -7z m1640 -212 c55 -36 54 -24 53 -871
-1 -861 3 -810 -65 -844 -32 -16 -96 -17 -816 -16 -865 0 -822 -3 -853 65 -14
32 -16 122 -15 810 1 426 2 782 3 790 2 23 43 66 73 76 16 5 368 9 810 9 730
-1 785 -2 810 -19z"/>
<path d="M1023 1812 c-53 -41 -53 -40 69 -530 127 -510 127 -512 206 -512 83
0 80 -7 207 501 62 251 112 464 110 475 -2 10 -4 22 -4 26 -1 4 -12 19 -26 33
-29 28 -76 33 -119 14 -33 -15 -44 -48 -110 -313 -29 -120 -56 -214 -58 -210
-3 5 -31 115 -63 244 -51 209 -60 238 -86 263 -35 32 -91 36 -126 9z"/>
</g>
</svg>
